<?xml version="1.0" encoding="UTF-8"?>
<svg version="1.1" xmlns="http://www.w3.org/2000/svg" width="43" height="41">
<path d="M0 0 C14.19 0 28.38 0 43 0 C43 13.53 43 27.06 43 41 C28.81 41 14.62 41 0 41 C0 27.47 0 13.94 0 0 Z " fill="#487D65" transform="translate(0,0)"/>
<path d="M0 0 C14.19 0 28.38 0 43 0 C43 13.53 43 27.06 43 41 C38.05 41 33.1 41 28 41 C30.16031119 39.37976661 32.33251612 37.77291582 34.5625 36.25 C38.69741436 32.43315597 40.14779206 28.08359744 40.5 22.5625 C40.28955934 17.42424059 38.48579962 13.74808066 35 10 C30.55626575 6.5705964 25.8220372 5.26537372 20.23828125 5.5546875 C15.45539968 6.50625556 11.81449258 8.94016758 8.61328125 12.57421875 C5.5911247 17.12335967 5.11962766 21.67191323 6 27 C7.48481736 32.16902042 9.67311408 35.10534896 14.25 37.9375 C15.30960938 38.50791016 15.30960938 38.50791016 16.390625 39.08984375 C16.92171875 39.39019531 17.4528125 39.69054688 18 40 C18 40.33 18 40.66 18 41 C12.06 41 6.12 41 0 41 C0 27.47 0 13.94 0 0 Z " fill="#FBFCFC" transform="translate(0,0)"/>
<path d="M0 0 C-0.66 1.98 -1.32 3.96 -2 6 C-1.54625 5.505 -1.0925 5.01 -0.625 4.5 C1 3 1 3 3 3 C2.34 4.32 1.68 5.64 1 7 C3.21081851 7.10540926 3.21081851 7.10540926 6 6 C5.3125 7.9375 5.3125 7.9375 4 10 C1.12060581 10.93580311 -0.25509788 11.37245106 -3 10 C-2.51789062 10.53109375 -2.03578125 11.0621875 -1.5390625 11.609375 C-0.90742188 12.31578125 -0.27578125 13.0221875 0.375 13.75 C1.00148438 14.44609375 1.62796875 15.1421875 2.2734375 15.859375 C3.87505183 17.84508688 4.96520068 19.67954093 6 22 C2.24291498 20.31578947 2.24291498 20.31578947 0.75 18.375 C-1.68527778 16.46156746 -3.97509421 16.47353218 -7 16.5625 C-10.28107044 17.28023416 -11.89312043 19.52131816 -14 22 C-14.66 22 -15.32 22 -16 22 C-14.70700306 19.11562221 -13.34058637 17.12780579 -11 15 C-12.05314529 12.73168707 -13.03522285 10.95955895 -14.6875 9.0625 C-16 7 -16 7 -15.6875 4.25 C-15.460625 3.5075 -15.23375 2.765 -15 2 C-11.22089522 2 -10.53893899 2.99703962 -7.8125 5.5 C-7.09707031 6.1496875 -6.38164062 6.799375 -5.64453125 7.46875 C-5.10183594 7.9740625 -4.55914062 8.479375 -4 9 C-4.226875 8.071875 -4.45375 7.14375 -4.6875 6.1875 C-5 3 -5 3 -3.6875 1.125 C-2 0 -2 0 0 0 Z " fill="#EDF2F0" transform="translate(28,12)"/>
<path d="M0 0 C1.1055189 0.93590504 2.20935453 1.87379858 3.3125 2.8125 C3.92738281 3.33457031 4.54226562 3.85664063 5.17578125 4.39453125 C6.85424679 5.87172469 8.43882034 7.40039131 10 9 C9.25 10.9375 9.25 10.9375 8 13 C6.67203709 13.35412344 5.33783393 13.68521554 4 14 C2.64691687 15.31328657 1.31129922 16.64499081 0 18 C-0.66 18 -1.32 18 -2 18 C-0.71480435 15.13302508 0.57129254 13.02392288 3 11 C3.66 11 4.32 11 5 11 C4.58493854 8.09456975 4.06074946 7.06074946 1.9375 4.9375 C1.298125 4.298125 0.65875 3.65875 0 3 C0 2.01 0 1.02 0 0 Z " fill="#E2EAE7" transform="translate(14,16)"/>
<path d="M0 0 C1.1055189 0.93590504 2.20935453 1.87379858 3.3125 2.8125 C3.92738281 3.33457031 4.54226562 3.85664063 5.17578125 4.39453125 C8.51952278 7.3373102 8.51952278 7.3373102 10 9 C10 9.66 10 10.32 10 11 C5.90725115 9.42586583 2.64043987 6.45897623 0 3 C0 2.01 0 1.02 0 0 Z " fill="#54856F" transform="translate(14,16)"/>
</svg>
